<svg width="692" height="465" viewBox="0 0 692 465" fill="none" xmlns="http://www.w3.org/2000/svg">
<g id="Image Container">
<g id="Image">
<g id="Image_2">
<rect id="Rectangle" x="265" y="9.78949" width="635" height="434" rx="12" fill="#191D36"/>
<rect id="Rectangle Copy 16" x="268" y="12.7895" width="629" height="428" rx="10" fill="#0B0E21"/>
<rect id="Rectangle Copy 17" x="281" y="25.7895" width="603" height="402" rx="5" fill="#16171B"/>
<g id="Group 19 + Group 11 Mask">
<rect id="Mask" x="284" y="27.7895" width="597.554" height="396.861" rx="3" fill="#EBEDF4"/>
<mask id="mask0_56139_382" style="mask-type:luminance" maskUnits="userSpaceOnUse" x="284" y="27" width="598" height="398">
<rect id="Mask_2" x="284" y="27.7895" width="597.554" height="396.861" rx="3" fill="white"/>
</mask>
<g mask="url(#mask0_56139_382)">
<g id="Image Details">
<g id="Content">
<rect id="Rectangle_2" x="413" y="116.789" width="331" height="47" rx="5" fill="white"/>
<g id="Content_2">
<g id="Text">
<rect id="Rectangle Copy 2" x="429" y="134.789" width="53" height="5" rx="2.5" fill="#B1B4C7"/>
<rect id="Rectangle Copy 3" x="429" y="143.789" width="34" height="5" rx="2.5" fill="#D4D7E6"/>
</g>
<g id="Group 9 Copy">
<rect id="Rectangle Copy 2_2" x="504" y="134.789" width="53" height="5" rx="2.5" fill="#B1B4C7"/>
<rect id="Rectangle Copy 3_2" x="504" y="143.789" width="34" height="5" rx="2.5" fill="#D4D7E6"/>
</g>
<g id="Group 9 Copy 2">
<rect id="Rectangle Copy 2_3" x="606" y="134.789" width="53" height="5" rx="2.5" fill="#B1B4C7"/>
<rect id="Rectangle Copy 3_3" x="606" y="143.789" width="34" height="5" rx="2.5" fill="#D4D7E6"/>
</g>
<g id="Group 9 Copy 3">
<rect id="Rectangle Copy 2_4" x="679" y="134.789" width="53" height="5" rx="2.5" fill="#B1B4C7"/>
<rect id="Rectangle Copy 3_4" x="679" y="143.789" width="34" height="5" rx="2.5" fill="#D4D7E6"/>
</g>
</g>
</g>
<g id="Rectangle_3">
<rect id="Mask_3" x="413" y="177.789" width="331" height="184" rx="5" fill="white"/>
<mask id="mask1_56139_382" style="mask-type:luminance" maskUnits="userSpaceOnUse" x="413" y="177" width="331" height="185">
<rect id="Mask_4" x="413" y="177.789" width="331" height="184" rx="5" fill="white"/>
</mask>
<g mask="url(#mask1_56139_382)">
<g id="Content_3">
<rect id="Rectangle_4" x="397" y="209.789" width="184" height="24" rx="12" fill="#FF5E5E"/>
<rect id="Rectangle Copy 20" x="397" y="305.789" width="184" height="24" rx="12" fill="#FF5E5E"/>
<rect id="Rectangle Copy 11" x="589" y="209.789" width="24" height="24" rx="12" fill="#BC4747"/>
<rect id="Rectangle Copy 13" x="589" y="241.789" width="88" height="24" rx="12" fill="#FF5E5E"/>
<rect id="Rectangle Copy 14" x="467" y="241.336" width="114" height="24" rx="12" fill="#BC4747"/>
<rect id="Rectangle Copy 15" x="627" y="274.32" width="50" height="24" rx="12" fill="#FF5E5E"/>
<rect id="Rectangle Copy 19" x="380" y="273.714" width="79" height="24" rx="12" fill="#FF5E5E"/>
<rect id="Rectangle Copy 12" x="685" y="241.789" width="24" height="24" rx="12" fill="#BC4747"/>
</g>
</g>
</g>
<rect id="Rectangle_5" x="413" y="41.7895" width="77" height="5" rx="2.5" fill="#CBCEDC"/>
<g id="Image Details_2">
<rect id="Rectangle Copy" x="413" y="67.7895" width="66" height="19" rx="9.5" fill="#8C90A3"/>
<rect id="Rectangle Copy 9" x="489" y="68.0778" width="31" height="19" rx="9.5" fill="#8C90A3"/>
<rect id="Rectangle Copy 10" x="528" y="67.7895" width="31" height="19" rx="9.5" fill="#8C90A3"/>
</g>
</g>
<g id="Image_3">
<rect id="Rectangle_6" x="284" y="27.7895" width="107" height="397" fill="#353740"/>
<g id="Image_4">
<rect id="Rectangle_7" x="299" y="107.789" width="77" height="5" rx="2.5" fill="#4A4E5D"/>
<rect id="Rectangle Copy 4" x="299" y="126.789" width="77" height="5" rx="2.5" fill="#4A4E5D"/>
<rect id="Rectangle Copy 5" x="299" y="145.789" width="77" height="5" rx="2.5" fill="#4A4E5D"/>
<rect id="Rectangle Copy 6" x="299" y="164.789" width="77" height="5" rx="2.5" fill="#4A4E5D"/>
<rect id="Rectangle Copy 7" x="299" y="183.789" width="77" height="5" rx="2.5" fill="#4A4E5D"/>
<rect id="Rectangle Copy 8" x="299" y="405.789" width="77" height="5" rx="2.5" fill="#4A4E5D"/>
<g id="Image Details_3">
<g id="Image Details_4">
<rect id="Rectangle Copy 2_5" x="323" y="66.7895" width="53" height="5" rx="2.5" fill="#7B7F90"/>
<rect id="Rectangle Copy 3_5" x="323" y="75.7895" width="34" height="5" rx="2.5" fill="#4A4E5D"/>
</g>
<circle id="Oval" cx="308" cy="73.7895" r="9" fill="#FF5E5E"/>
</g>
<rect id="Rectangle Copy_2" x="299" y="39.7895" width="77" height="9" rx="4.5" fill="#8C90A3"/>
</g>
</g>
</g>
</g>
<g id="Image Details_5">
<rect id="Rectangle_8" opacity="0.0979818" x="571" y="17.7895" width="15.64" height="4" rx="2" fill="#4A5166"/>
<rect id="Rectangle Copy 18" opacity="0.0979818" x="590.32" y="17.7895" width="3.68" height="4" rx="1.84" fill="#4A5166"/>
</g>
<g id="Rectangle_9">
<path id="Mask_5" d="M184 442.789C184 441.133 185.343 439.789 187 439.789H956.629C958.286 439.789 959.629 441.133 959.629 442.789V458.795H184V442.789Z" fill="#242942"/>
<mask id="mask2_56139_382" style="mask-type:luminance" maskUnits="userSpaceOnUse" x="184" y="439" width="776" height="20">
<path id="Mask_6" d="M184 442.789C184 441.133 185.343 439.789 187 439.789H956.629C958.286 439.789 959.629 441.133 959.629 442.789V458.795H184V442.789Z" fill="white"/>
</mask>
<g mask="url(#mask2_56139_382)">
<rect id="Rectangle_10" x="508.47" y="393.225" width="126.689" height="57.9678" rx="10" fill="#2E334F"/>
</g>
</g>
<path id="Rectangle_11" d="M184 457.789H960C960 461.655 956.866 464.789 953 464.789H191C187.134 464.789 184 461.655 184 457.789Z" fill="#1A1C27"/>
</g>
</g>
<g id="Image_5">
<g id="Rectangle_12" filter="url(#filter0_d_56139_382)">
<rect x="44" y="10" width="167" height="341" rx="12" fill="#242942"/>
</g>
<g id="Image_6">
<rect id="Mask_7" x="50" y="15.7895" width="155" height="330" rx="9" fill="#EBEDF4"/>
<mask id="mask3_56139_382" style="mask-type:luminance" maskUnits="userSpaceOnUse" x="50" y="15" width="155" height="331">
<rect id="Mask_8" x="50" y="15.7895" width="155" height="330" rx="9" fill="white"/>
</mask>
<g mask="url(#mask3_56139_382)">
<g id="Image_7">
<rect id="Rectangle_13" x="50" y="15.7895" width="155" height="77" fill="#353740"/>
<g id="Rectangle_14">
<rect id="Mask_9" x="58" y="123.789" width="140" height="184" rx="5" fill="white"/>
<mask id="mask4_56139_382" style="mask-type:luminance" maskUnits="userSpaceOnUse" x="58" y="123" width="140" height="185">
<rect id="Mask_10" x="58" y="123.789" width="140" height="184" rx="5" fill="white"/>
</mask>
<g mask="url(#mask4_56139_382)">
<g id="Image Details_6">
<rect id="Rectangle_15" width="184" height="24" rx="12" transform="matrix(-1 0 0 1 334 155.789)" fill="#FF5E5E"/>
<rect id="Rectangle Copy 20_2" width="184" height="24" rx="12" transform="matrix(-1 0 0 1 334 251.789)" fill="#FF5E5E"/>
<rect id="Rectangle Copy 11_2" width="24" height="24" rx="12" transform="matrix(-1 0 0 1 142 155.789)" fill="#BC4747"/>
<rect id="Rectangle Copy 13_2" width="88" height="24" rx="12" transform="matrix(-1 0 0 1 142 187.789)" fill="#FF5E5E"/>
<rect id="Rectangle Copy 14_2" width="114" height="24" rx="12" transform="matrix(-1 0 0 1 264 187.336)" fill="#BC4747"/>
<rect id="Rectangle Copy 15_2" width="50" height="24" rx="12" transform="matrix(-1 0 0 1 104 220.32)" fill="#FF5E5E"/>
</g>
</g>
</g>
<rect id="Rectangle_16" x="58" y="67.7895" width="140" height="47" rx="5" fill="white"/>
<rect id="Rectangle_17" x="87" y="36.7895" width="77" height="5" rx="2.5" fill="#4A4E5D"/>
</g>
</g>
</g>
</g>
</g>
<defs>
<filter id="filter0_d_56139_382" x="0" y="0" width="267" height="441" filterUnits="userSpaceOnUse" color-interpolation-filters="sRGB">
<feFlood flood-opacity="0" result="BackgroundImageFix"/>
<feColorMatrix in="SourceAlpha" type="matrix" values="0 0 0 0 0 0 0 0 0 0 0 0 0 0 0 0 0 0 127 0" result="hardAlpha"/>
<feOffset dx="6" dy="40"/>
<feGaussianBlur stdDeviation="25"/>
<feColorMatrix type="matrix" values="0 0 0 0 0.24346 0 0 0 0 0.279313 0 0 0 0 0.375399 0 0 0 0.255293 0"/>
<feBlend mode="normal" in2="BackgroundImageFix" result="effect1_dropShadow_56139_382"/>
<feBlend mode="normal" in="SourceGraphic" in2="effect1_dropShadow_56139_382" result="shape"/>
</filter>
</defs>
</svg>
