<svg width="692" height="462" viewBox="0 0 692 462" fill="none" xmlns="http://www.w3.org/2000/svg">
<g id="Image Container">
<g id="Image">
<g id="Image_2">
<rect id="Rectangle" x="263.543" y="9.79089" width="630.813" height="431.138" rx="12" fill="#191D36"/>
<rect id="Rectangle Copy 16" x="266.523" y="12.7711" width="624.853" height="425.178" rx="10" fill="#0B0E21"/>
<rect id="Rectangle Copy 17" x="279.437" y="25.6854" width="599.024" height="399.349" rx="5" fill="#16171B"/>
<g id="Group 19 + Group 11 Mask">
<rect id="Mask" x="282.418" y="27.6722" width="593.614" height="394.244" rx="3" fill="#EBEDF4"/>
<mask id="mask0_56139_572" style="mask-type:luminance" maskUnits="userSpaceOnUse" x="282" y="27" width="595" height="395">
<rect id="Mask_2" x="282.418" y="27.6722" width="593.614" height="394.244" rx="3" fill="white"/>
</mask>
<g mask="url(#mask0_56139_572)">
<g id="Image Details">
<g id="Content">
<rect id="Rectangle_2" x="410.567" y="116.085" width="328.818" height="46.6901" rx="5" fill="white"/>
<g id="Content_2">
<g id="Text">
<rect id="Rectangle Copy 2" x="426.462" y="133.967" width="52.6506" height="4.96703" rx="2.48352" fill="#B1B4C7"/>
<rect id="Rectangle Copy 3" x="426.462" y="142.907" width="33.7758" height="4.96703" rx="2.48352" fill="#D4D7E6"/>
</g>
<g id="Group 9 Copy">
<rect id="Rectangle Copy 2_2" x="500.967" y="133.967" width="52.6506" height="4.96703" rx="2.48352" fill="#B1B4C7"/>
<rect id="Rectangle Copy 3_2" x="500.967" y="142.907" width="33.7758" height="4.96703" rx="2.48352" fill="#D4D7E6"/>
</g>
<g id="Group 9 Copy 2">
<rect id="Rectangle Copy 2_3" x="602.295" y="133.967" width="52.6506" height="4.96703" rx="2.48352" fill="#B1B4C7"/>
<rect id="Rectangle Copy 3_3" x="602.295" y="142.907" width="33.7758" height="4.96703" rx="2.48352" fill="#D4D7E6"/>
</g>
<g id="Group 9 Copy 3">
<rect id="Rectangle Copy 2_4" x="674.813" y="133.967" width="52.6506" height="4.96703" rx="2.48352" fill="#B1B4C7"/>
<rect id="Rectangle Copy 3_4" x="674.813" y="142.907" width="33.7758" height="4.96703" rx="2.48352" fill="#D4D7E6"/>
</g>
</g>
</g>
<g id="Rectangle_3">
<rect id="Mask_3" x="410.567" y="176.683" width="328.818" height="182.787" rx="5" fill="white"/>
<mask id="mask1_56139_572" style="mask-type:luminance" maskUnits="userSpaceOnUse" x="410" y="176" width="330" height="184">
<rect id="Mask_4" x="410.567" y="176.683" width="328.818" height="182.787" rx="5" fill="white"/>
</mask>
<g mask="url(#mask1_56139_572)">
<g id="Content_3">
<rect id="Rectangle_4" x="394.673" y="208.472" width="182.787" height="23.8418" rx="11.9209" fill="#FF5E5E"/>
<rect id="Rectangle Copy 20" x="394.673" y="303.839" width="182.787" height="23.8418" rx="11.9209" fill="#FF5E5E"/>
<rect id="Rectangle Copy 11" x="585.407" y="208.472" width="23.8418" height="23.8418" rx="11.9209" fill="#BC4747"/>
<rect id="Rectangle Copy 13" x="585.407" y="240.261" width="87.4198" height="23.8418" rx="11.9209" fill="#FF5E5E"/>
<rect id="Rectangle Copy 14" x="464.211" y="239.811" width="113.248" height="23.8418" rx="11.9209" fill="#BC4747"/>
<rect id="Rectangle Copy 15" x="623.156" y="272.577" width="49.6703" height="23.8418" rx="11.9209" fill="#FF5E5E"/>
<rect id="Rectangle Copy 19" x="377.785" y="271.976" width="78.4791" height="23.8418" rx="11.9209" fill="#FF5E5E"/>
<rect id="Rectangle Copy 12" x="680.774" y="240.261" width="23.8418" height="23.8418" rx="11.9209" fill="#BC4747"/>
</g>
</g>
</g>
<rect id="Rectangle_5" x="410.567" y="41.5799" width="76.4923" height="4.96703" rx="2.48352" fill="#CBCEDC"/>
<g id="Image Details_2">
<rect id="Rectangle Copy" x="410.567" y="67.4084" width="65.5648" height="18.8747" rx="9.43736" fill="#8C90A3"/>
<rect id="Rectangle Copy 9" x="486.066" y="67.6949" width="30.7956" height="18.8747" rx="9.43736" fill="#8C90A3"/>
<rect id="Rectangle Copy 10" x="524.809" y="67.4084" width="30.7956" height="18.8747" rx="9.43736" fill="#8C90A3"/>
</g>
</g>
<g id="Image_3">
<rect id="Rectangle_6" x="282.418" y="27.6722" width="106.295" height="394.382" fill="#353740"/>
<g id="Image_4">
<rect id="Rectangle_7" x="297.319" y="107.145" width="76.4923" height="4.96703" rx="2.48352" fill="#4A4E5D"/>
<rect id="Rectangle Copy 4" x="297.319" y="126.019" width="76.4923" height="4.96703" rx="2.48352" fill="#4A4E5D"/>
<rect id="Rectangle Copy 5" x="297.319" y="144.894" width="76.4923" height="4.96703" rx="2.48352" fill="#4A4E5D"/>
<rect id="Rectangle Copy 6" x="297.319" y="163.769" width="76.4923" height="4.96703" rx="2.48352" fill="#4A4E5D"/>
<rect id="Rectangle Copy 7" x="297.319" y="182.644" width="76.4923" height="4.96703" rx="2.48352" fill="#4A4E5D"/>
<rect id="Rectangle Copy 8" x="297.319" y="403.18" width="76.4923" height="4.96703" rx="2.48352" fill="#4A4E5D"/>
<g id="Image Details_3">
<g id="Image Details_4">
<rect id="Rectangle Copy 2_5" x="321.16" y="66.415" width="52.6506" height="4.96703" rx="2.48352" fill="#7B7F90"/>
<rect id="Rectangle Copy 3_5" x="321.16" y="75.3557" width="33.7758" height="4.96703" rx="2.48352" fill="#4A4E5D"/>
</g>
<circle id="Oval" cx="306.259" cy="73.3689" r="8.94066" fill="#FF5E5E"/>
</g>
<rect id="Rectangle Copy_2" x="297.319" y="39.5931" width="76.4923" height="8.94066" rx="4.47033" fill="#8C90A3"/>
</g>
</g>
</g>
</g>
<g id="Image Details_5">
<rect id="Rectangle_8" opacity="0.0979818" x="567.525" y="17.7382" width="15.5369" height="3.97363" rx="1.98681" fill="#4A5166"/>
<rect id="Rectangle Copy 18" opacity="0.0979818" x="586.718" y="17.7382" width="3.65574" height="3.97363" rx="1.82787" fill="#4A5166"/>
</g>
<g id="Rectangle_9">
<path id="Mask_5" d="M183.077 439.956C183.077 438.299 184.42 436.956 186.077 436.956H950.592C952.248 436.956 953.592 438.299 953.592 439.956V455.836H183.077V439.956Z" fill="#242942"/>
<mask id="mask2_56139_572" style="mask-type:luminance" maskUnits="userSpaceOnUse" x="183" y="436" width="771" height="20">
<path id="Mask_6" d="M183.077 439.956C183.077 438.299 184.42 436.956 186.077 436.956H950.592C952.248 436.956 953.592 438.299 953.592 439.956V455.836H183.077V439.956Z" fill="white"/>
</mask>
<g mask="url(#mask2_56139_572)">
<rect id="Rectangle_10" x="505.407" y="390.698" width="125.854" height="57.5856" rx="10" fill="#2E334F"/>
</g>
</g>
<path id="Rectangle_11" d="M183.077 454.837H953.96C953.96 458.678 950.847 461.791 947.007 461.791H190.031C186.19 461.791 183.077 458.678 183.077 454.837Z" fill="#1A1C27"/>
</g>
</g>
<g id="Image_5">
<g id="Rectangle_12" filter="url(#filter0_d_56139_572)">
<rect x="44" y="10" width="165.899" height="338.752" rx="12" fill="#242942"/>
</g>
<g id="Image_6">
<rect id="Mask_7" x="49.9604" y="15.7513" width="153.978" height="327.824" rx="9" fill="#EBEDF4"/>
<mask id="mask3_56139_572" style="mask-type:luminance" maskUnits="userSpaceOnUse" x="49" y="15" width="155" height="329">
<rect id="Mask_8" x="49.9604" y="15.7513" width="153.978" height="327.824" rx="9" fill="white"/>
</mask>
<g mask="url(#mask3_56139_572)">
<g id="Image_7">
<rect id="Rectangle_13" x="49.9604" y="15.7513" width="153.978" height="76.4923" fill="#353740"/>
<g id="Rectangle_14">
<rect id="Mask_9" x="57.9077" y="123.039" width="139.077" height="182.787" rx="5" fill="white"/>
<mask id="mask4_56139_572" style="mask-type:luminance" maskUnits="userSpaceOnUse" x="57" y="123" width="140" height="183">
<rect id="Mask_10" x="57.9077" y="123.039" width="139.077" height="182.787" rx="5" fill="white"/>
</mask>
<g mask="url(#mask4_56139_572)">
<g id="Image Details_6">
<rect id="Rectangle_15" width="182.787" height="23.8418" rx="11.9209" transform="matrix(-1 0 0 1 332.088 154.828)" fill="#FF5E5E"/>
<rect id="Rectangle Copy 20_2" width="182.787" height="23.8418" rx="11.9209" transform="matrix(-1 0 0 1 332.088 250.195)" fill="#FF5E5E"/>
<rect id="Rectangle Copy 11_2" width="23.8418" height="23.8418" rx="11.9209" transform="matrix(-1 0 0 1 141.354 154.828)" fill="#BC4747"/>
<rect id="Rectangle Copy 13_2" width="87.4198" height="23.8418" rx="11.9209" transform="matrix(-1 0 0 1 141.354 186.617)" fill="#FF5E5E"/>
<rect id="Rectangle Copy 14_2" width="113.248" height="23.8418" rx="11.9209" transform="matrix(-1 0 0 1 262.549 186.167)" fill="#BC4747"/>
<rect id="Rectangle Copy 15_2" width="49.6703" height="23.8418" rx="11.9209" transform="matrix(-1 0 0 1 103.604 218.933)" fill="#FF5E5E"/>
</g>
</g>
</g>
<rect id="Rectangle_16" x="57.9077" y="67.4084" width="139.077" height="46.6901" rx="5" fill="white"/>
<rect id="Rectangle_17" x="86.7165" y="36.6129" width="76.4923" height="4.96703" rx="2.48352" fill="#4A4E5D"/>
</g>
</g>
</g>
</g>
</g>
<defs>
<filter id="filter0_d_56139_572" x="0" y="0" width="265.899" height="438.752" filterUnits="userSpaceOnUse" color-interpolation-filters="sRGB">
<feFlood flood-opacity="0" result="BackgroundImageFix"/>
<feColorMatrix in="SourceAlpha" type="matrix" values="0 0 0 0 0 0 0 0 0 0 0 0 0 0 0 0 0 0 127 0" result="hardAlpha"/>
<feOffset dx="6" dy="40"/>
<feGaussianBlur stdDeviation="25"/>
<feColorMatrix type="matrix" values="0 0 0 0 0.24346 0 0 0 0 0.279313 0 0 0 0 0.375399 0 0 0 0.255293 0"/>
<feBlend mode="normal" in2="BackgroundImageFix" result="effect1_dropShadow_56139_572"/>
<feBlend mode="normal" in="SourceGraphic" in2="effect1_dropShadow_56139_572" result="shape"/>
</filter>
</defs>
</svg>
